<svg version="1.2" baseProfile="tiny-ps" xmlns="http://www.w3.org/2000/svg" viewBox="0 0 1020 179" width="1020" height="179">
	<title>Slogn-svg</title>
	<style>
		tspan { white-space:pre }
		.shp0 { fill: #000000 } 
	</style>
	<path id="Fui Design " fill-rule="evenodd" class="shp0" d="M128.48 9.89L123.05 34.68L64.95 34.7L57.99 66.86L112.61 66.84L107.18 91.44L52.78 91.46L41.26 144.34L9.27 144.35L38.39 9.92L128.48 9.89ZM196.19 110.01L211.4 39.69L241.87 39.68L219.27 144.28L188.81 144.29L191.85 130.34C187.93 135.25 183.29 139.13 177.92 141.97C172.56 144.81 165.81 146.23 157.69 146.24C146.66 146.24 138.61 143.85 133.53 139.08C128.45 134.17 125.91 127.39 125.91 118.74C125.9 117.06 126.05 115.13 126.34 112.93C126.77 110.61 127.14 108.61 127.43 106.93L142.42 39.71L172.89 39.7L158.76 102.85C158.47 104.4 158.11 106.21 157.67 108.27C157.38 110.34 157.24 111.95 157.24 113.12C157.24 117.38 158.4 120.41 160.73 122.22C163.05 124.03 166.46 124.93 170.95 124.93C176.61 124.93 181.62 123.57 185.97 120.85C190.47 118.01 193.87 114.4 196.19 110.01ZM286.91 26.11C281.55 26.11 277.7 25.6 275.38 24.56C273.06 23.53 271.9 21.21 271.9 17.59C271.9 14.36 272.33 11.07 273.2 7.71C274.21 4.23 275.66 1.64 277.55 -0.03C279 -1.2 280.96 -1.97 283.42 -2.36C286.03 -2.75 288.86 -2.94 291.91 -2.94C298.15 -2.95 302.21 -2.24 304.1 -0.82C305.98 0.47 306.93 2.86 306.93 6.35C306.93 9.58 306.42 12.93 305.41 16.42C304.39 19.91 303.09 22.3 301.49 23.59C300.19 24.62 298.16 25.33 295.4 25.72C292.64 25.98 289.82 26.11 286.91 26.11ZM277.38 144.26L246.91 144.27L269.51 39.67L299.98 39.66L277.38 144.26ZM392.02 9.81L441.64 9.79C454.98 9.79 466.15 11.21 475.15 14.04C484.29 16.88 491.18 21.85 495.83 28.95C500.62 35.92 503.02 45.86 503.02 58.78C503.02 70.14 501.72 80.99 499.11 91.32C496.5 101.52 492.08 110.62 485.85 118.63C479.76 126.51 471.56 132.77 461.26 137.43C451.11 141.95 438.41 144.21 423.18 144.22L362.9 144.24L392.02 9.81ZM400.32 119.63L425.35 119.62C433.91 119.62 441.02 117.81 446.67 114.19C452.33 110.57 456.75 105.86 459.94 100.05C463.28 94.23 465.6 87.97 466.9 81.26C468.35 74.41 469.07 67.76 469.07 61.3C469.07 50.72 466.38 43.49 461.01 39.61C455.79 35.74 447.37 33.81 435.77 33.81L418.79 33.82L400.32 119.63ZM624.67 63.19C624.67 72.49 621.48 80.05 615.1 85.86C608.72 91.67 599.8 96.13 588.34 99.23C577.02 102.2 563.82 104.21 548.73 105.25C549.03 111.7 551.13 116.42 555.05 119.38C558.97 122.35 565.06 123.84 573.33 123.83C580.29 123.83 587.11 122.93 593.79 121.12C600.6 119.31 605.75 117.43 609.24 115.49L604.67 138.54C602.5 139.71 599.38 140.87 595.32 142.03C591.25 143.2 586.76 144.17 581.82 144.94C577.04 145.72 572.32 146.11 567.68 146.11C558.1 146.11 549.69 144.82 542.43 142.24C535.32 139.66 529.74 135.53 525.67 129.85C521.76 124.17 519.79 116.62 519.79 107.19C519.79 98.03 521.31 89.31 524.35 81.04C527.54 72.65 532.11 65.22 538.06 58.77C544 52.31 551.18 47.2 559.6 43.46C568.15 39.58 577.73 37.64 588.32 37.64C599.49 37.63 608.34 39.76 614.87 44.02C621.4 48.28 624.67 54.67 624.67 63.19ZM551.34 86.65C567.73 85.49 579.63 83.03 587.03 79.28C594.57 75.4 598.34 70.88 598.34 65.72C598.34 62.88 597.25 60.88 595.07 59.72C592.9 58.43 590.14 57.78 586.8 57.78C578.39 57.78 571.06 60.5 564.83 65.92C558.59 71.35 554.09 78.26 551.34 86.65ZM655.16 145.31C649.94 145.31 644.43 144.99 638.62 144.34C632.96 143.7 627.81 142.86 623.17 141.83L627.52 118.78C637.67 122.01 647.61 123.62 657.33 123.61C663.13 123.61 667.34 122.77 669.95 121.09C672.71 119.41 674.09 116.64 674.08 112.76C674.08 109.92 673.07 107.6 671.04 105.79C669.15 103.98 665.09 101.66 658.85 98.82C651.74 95.47 646.22 92.05 642.3 88.56C638.53 85.08 636.64 79.98 636.64 73.26C636.64 64.09 638.74 56.93 642.95 51.76C647.15 46.59 652.88 42.98 660.13 40.91C667.39 38.71 675.66 37.61 684.94 37.61C689.73 37.61 694.66 37.93 699.74 38.57C704.96 39.22 709.24 40.05 712.58 41.09L707.58 62.2C704.83 61.17 701.2 60.26 696.7 59.49C692.2 58.72 687.41 58.33 682.34 58.33C676.1 58.34 671.67 59.18 669.06 60.86C666.6 62.41 665.37 65.05 665.37 68.8C665.37 70.35 665.73 71.7 666.46 72.86C667.33 74.03 668.92 75.32 671.24 76.74C673.57 78.03 677.12 79.83 681.91 82.16C688.58 85.38 693.81 88.8 697.58 92.42C701.35 96.03 703.24 101.52 703.24 108.88C703.25 118.43 701.15 125.86 696.94 131.16C692.73 136.45 687.01 140.13 679.75 142.2C672.64 144.27 664.45 145.3 655.16 145.31ZM757.41 25.96C752.04 25.97 748.19 25.45 745.87 24.42C743.55 23.39 742.39 21.06 742.39 17.45C742.39 14.22 742.82 10.93 743.69 7.57C744.7 4.08 746.15 1.5 748.04 -0.18C749.49 -1.34 751.45 -2.12 753.91 -2.51C756.53 -2.9 759.36 -3.09 762.4 -3.09C768.64 -3.09 772.7 -2.38 774.59 -0.96C776.48 0.33 777.42 2.72 777.42 6.2C777.42 9.43 776.91 12.79 775.9 16.27C774.89 19.76 773.58 22.15 771.99 23.44C770.68 24.47 768.65 25.19 765.89 25.57C763.14 25.83 760.31 25.96 757.41 25.96ZM747.87 144.12L717.4 144.13L740 39.53L770.47 39.52L747.87 144.12ZM810.99 182.83C805.62 182.84 799.96 182.64 794.01 182.26C788.21 181.74 782.99 181.1 778.34 180.33L782.26 158.24C786.61 159.15 791.18 159.92 795.97 160.56C800.75 161.08 805.54 161.34 810.33 161.34C819.32 161.33 826.58 160.36 832.09 158.42C837.6 156.48 841.88 153.38 844.93 149.12C847.97 144.86 850.36 139.31 852.1 132.46L855.15 121.03L853.84 121.03C850.65 127.36 846.01 132.92 839.92 137.7C833.97 142.35 825.85 144.67 815.55 144.68C804.52 144.68 795.89 141.91 789.65 136.36C783.41 130.81 780.29 121.96 780.28 109.82C780.28 100.91 781.65 92.2 784.41 83.67C787.16 75.02 791.29 67.27 796.81 60.43C802.46 53.45 809.57 47.9 818.13 43.76C826.69 39.63 836.84 37.56 848.59 37.56C858.89 37.55 867.74 39.29 875.14 42.78C882.69 46.13 888.49 50.01 892.56 54.39L895.6 57.49L878.87 133.62C877.28 140.85 875.1 147.5 872.35 153.57C869.74 159.51 866.04 164.67 861.25 169.07C856.47 173.46 850.01 176.88 841.89 179.34C833.77 181.66 823.47 182.83 810.99 182.83ZM824.24 123.37C828.45 123.37 832.51 121.95 836.43 119.1C840.35 116.26 843.9 112.58 847.09 108.06C850.43 103.41 853.33 98.5 855.79 93.34C858.25 88.17 860.14 83.26 861.44 78.61C862.75 73.84 863.4 69.9 863.4 66.8C862.82 64.99 861.08 63.18 858.17 61.38C855.42 59.57 851.57 58.67 846.64 58.67C840.84 58.67 835.69 60.03 831.19 62.74C826.69 65.45 822.92 69.07 819.88 73.59C816.98 78.11 814.73 83.21 813.14 88.9C811.69 94.45 810.96 100.13 810.96 105.94C810.97 111.11 811.91 115.3 813.8 118.53C815.83 121.76 819.31 123.37 824.24 123.37ZM989.17 37.51C1000.2 37.51 1008.18 39.96 1013.11 44.87C1018.19 49.64 1020.73 56.36 1020.74 65.01C1020.74 66.69 1020.52 68.62 1020.09 70.82C1019.8 73.01 1019.51 75.01 1019.22 76.82L1004.44 144.04L973.97 144.05L988.1 80.9C988.39 79.35 988.68 77.54 988.97 75.48C989.4 73.41 989.62 71.8 989.62 70.63C989.62 66.37 988.38 63.34 985.92 61.53C983.45 59.6 979.89 58.63 975.25 58.63C969.01 58.63 963.57 60.31 958.93 63.67C954.29 66.9 950.88 71.16 948.71 76.46L934.15 144.06L903.68 144.07L926.28 39.47L956.75 39.46L953.71 53.79C957.48 48.63 962.26 44.62 968.07 41.78C973.87 38.94 980.9 37.52 989.17 37.51Z" />
</svg>