<svg version="1.2" baseProfile="tiny-ps" xmlns="http://www.w3.org/2000/svg" viewBox="0 0 490 97" width="490" height="97">
	<title>red-svg</title>
	<style>
		tspan { white-space:pre }
		.shp0 { fill: #000000 } 
		.shp1 { fill: #111f2d } 
		.shp2 { fill: #f74455 } 
	</style>
	<g id="交互框架">
		<g id="首页">
			<g id="编组-10">
				<g id="编组-30">
					<path id="Fui Des gn " fill-rule="evenodd" class="shp0" d="M79.29 20.57L76.95 32.2L50.15 32.6L47.16 47.68L72.34 47.32L70 58.86L44.91 59.23L39.94 84.04L25.19 84.26L37.75 21.18L79.29 20.57ZM111.17 66.96L117.72 33.96L131.77 33.76L122.03 82.84L107.98 83.05L109.29 76.5C107.52 78.83 105.4 80.67 102.95 82.03C100.49 83.4 97.39 84.11 93.64 84.16C88.56 84.24 84.83 83.18 82.46 80.97C80.08 78.71 78.87 75.56 78.81 71.51C78.8 70.73 78.85 69.82 78.97 68.79C79.16 67.7 79.31 66.76 79.43 65.97L85.91 34.43L99.96 34.22L93.86 63.86C93.73 64.59 93.58 65.43 93.39 66.4C93.27 67.37 93.22 68.13 93.22 68.67C93.25 70.67 93.81 72.08 94.89 72.91C95.97 73.74 97.55 74.14 99.62 74.11C102.23 74.07 104.53 73.4 106.52 72.1C108.58 70.74 110.12 69.03 111.17 66.96ZM152.46 27.11C149.98 27.15 148.2 26.93 147.13 26.46C146.05 26 145.5 24.92 145.48 23.22C145.45 21.71 145.63 20.17 146.01 18.59C146.46 16.96 147.11 15.74 147.97 14.94C148.63 14.39 149.53 14.01 150.66 13.81C151.86 13.61 153.17 13.51 154.57 13.48C157.45 13.44 159.33 13.75 160.21 14.4C161.08 14.99 161.53 16.1 161.56 17.73C161.58 19.24 161.37 20.82 160.92 22.46C160.48 24.09 159.89 25.22 159.16 25.83C158.57 26.33 157.64 26.67 156.37 26.87C155.1 27.01 153.79 27.09 152.46 27.11ZM148.82 82.45L134.77 82.66L144.52 33.57L158.57 33.37L148.82 82.45ZM200.82 18.79L223.7 18.45C229.85 18.36 235.01 18.95 239.18 20.22C243.42 21.49 246.63 23.77 248.81 27.06C251.07 30.29 252.24 34.93 252.32 40.97C252.4 46.28 251.87 51.37 250.73 56.22C249.6 61.01 247.62 65.29 244.79 69.08C242.03 72.81 238.3 75.79 233.58 78.04C228.92 80.22 223.08 81.36 216.06 81.47L188.26 81.87L200.82 18.79ZM205.36 70.11L216.9 69.94C220.85 69.89 224.11 68.99 226.7 67.26C229.28 65.53 231.29 63.3 232.73 60.56C234.23 57.82 235.26 54.87 235.81 51.72C236.44 48.51 236.73 45.39 236.68 42.37C236.61 37.42 235.33 34.05 232.83 32.28C230.39 30.5 226.5 29.65 221.15 29.73L213.32 29.85L205.36 70.11ZM308.45 42.23C308.51 46.58 307.09 50.13 304.18 52.9C301.28 55.66 297.19 57.8 291.93 59.33C286.73 60.8 280.66 61.82 273.71 62.41C273.88 65.42 274.88 67.61 276.71 68.98C278.54 70.34 281.35 70.99 285.17 70.94C288.38 70.89 291.52 70.42 294.58 69.53C297.72 68.64 300.08 67.73 301.67 66.8L299.72 77.61C298.72 78.17 297.29 78.74 295.42 79.31C293.56 79.88 291.49 80.36 289.22 80.76C287.02 81.15 284.85 81.37 282.71 81.4C278.29 81.46 274.4 80.92 271.04 79.76C267.74 78.6 265.14 76.7 263.23 74.07C261.39 71.44 260.43 67.92 260.37 63.51C260.31 59.22 260.96 55.13 262.31 51.24C263.72 47.29 265.78 43.79 268.48 40.73C271.18 37.67 274.46 35.23 278.31 33.43C282.23 31.56 286.64 30.58 291.52 30.51C296.67 30.44 300.77 31.38 303.81 33.32C306.85 35.27 308.39 38.24 308.45 42.23ZM274.79 53.69C282.34 53.03 287.81 51.81 291.2 50C294.65 48.14 296.36 46 296.32 43.59C296.3 42.26 295.79 41.33 294.78 40.8C293.77 40.21 292.49 39.93 290.95 39.95C287.07 40 283.71 41.32 280.87 43.9C278.03 46.48 276 49.74 274.79 53.69ZM323.04 80.44C320.63 80.48 318.09 80.37 315.41 80.1C312.8 79.84 310.42 79.48 308.27 79.03L310.12 68.22C314.83 69.66 319.42 70.35 323.9 70.28C326.58 70.24 328.51 69.82 329.71 69.02C330.97 68.21 331.58 66.91 331.56 65.09C331.54 63.76 331.06 62.68 330.11 61.85C329.23 61.02 327.34 59.96 324.44 58.67C321.14 57.15 318.58 55.59 316.75 53.98C314.98 52.38 314.08 50 314.04 46.86C313.97 42.57 314.9 39.2 316.8 36.76C318.71 34.31 321.33 32.58 324.66 31.57C327.99 30.49 331.8 29.92 336.08 29.86C338.29 29.83 340.56 29.95 342.91 30.21C345.32 30.48 347.3 30.85 348.85 31.31L346.68 41.22C345.4 40.75 343.72 40.35 341.64 40.02C339.56 39.69 337.35 39.54 335.01 39.57C332.13 39.62 330.1 40.04 328.91 40.84C327.78 41.58 327.23 42.83 327.25 44.58C327.26 45.31 327.44 45.94 327.78 46.48C328.19 47.02 328.93 47.61 330.01 48.26C331.09 48.85 332.74 49.67 334.97 50.72C338.07 52.19 340.5 53.75 342.26 55.42C344.02 57.09 344.93 59.64 344.98 63.08C345.04 67.55 344.12 71.04 342.22 73.55C340.31 76.05 337.69 77.81 334.36 78.83C331.1 79.84 327.32 80.38 323.04 80.44ZM394.04 96.99C391.56 97.03 388.95 96.97 386.21 96.83C383.53 96.63 381.12 96.36 378.97 96.03L380.63 85.67C382.64 86.07 384.76 86.4 386.97 86.67C389.18 86.88 391.39 86.97 393.6 86.93C397.74 86.87 401.08 86.37 403.61 85.43C406.14 84.49 408.1 83.01 409.47 80.99C410.85 78.98 411.92 76.36 412.67 73.15L414 67.78L413.4 67.79C411.97 70.77 409.87 73.4 407.09 75.68C404.38 77.9 400.64 79.04 395.89 79.11C390.81 79.18 386.81 77.94 383.9 75.39C380.98 72.83 379.49 68.71 379.41 63.03C379.35 58.87 379.93 54.78 381.14 50.77C382.35 46.71 384.21 43.05 386.71 39.82C389.27 36.51 392.51 33.87 396.43 31.88C400.35 29.89 405.02 28.85 410.44 28.77C415.19 28.7 419.28 29.46 422.72 31.04C426.22 32.56 428.92 34.33 430.82 36.36L432.25 37.79L425.02 73.51C424.34 76.91 423.38 80.03 422.15 82.89C420.98 85.69 419.31 88.13 417.13 90.22C414.95 92.3 412 93.95 408.27 95.15C404.54 96.29 399.79 96.9 394.04 96.99ZM399.77 69.08C401.71 69.05 403.57 68.36 405.36 67C407.15 65.65 408.76 63.9 410.2 61.77C411.71 59.57 413.02 57.26 414.12 54.82C415.22 52.39 416.06 50.08 416.63 47.9C417.2 45.65 417.48 43.81 417.46 42.36C417.18 41.51 416.36 40.68 415.01 39.85C413.73 39.03 411.95 38.63 409.68 38.66C407 38.7 404.63 39.37 402.58 40.67C400.52 41.97 398.81 43.69 397.43 45.82C396.12 47.96 395.12 50.36 394.42 53.03C393.79 55.63 393.49 58.3 393.53 61.01C393.56 63.43 394.03 65.39 394.92 66.89C395.88 68.38 397.49 69.11 399.77 69.08ZM475.27 27.82C480.35 27.75 484.05 28.84 486.35 31.11C488.73 33.31 489.94 36.43 490 40.48C490.01 41.26 489.92 42.17 489.74 43.2C489.62 44.23 489.5 45.17 489.37 46.02L483 77.56L468.95 77.77L475.05 48.13C475.18 47.4 475.3 46.56 475.42 45.59C475.6 44.62 475.69 43.86 475.69 43.32C475.66 41.32 475.07 39.91 473.92 39.08C472.77 38.19 471.12 37.76 468.98 37.8C466.11 37.84 463.61 38.66 461.49 40.26C459.37 41.8 457.83 43.82 456.86 46.31L450.58 78.03L436.53 78.24L446.28 29.15L460.33 28.95L459.02 35.68C460.72 33.23 462.9 31.33 465.56 29.96C468.22 28.59 471.45 27.88 475.27 27.82Z" />
					<path id="路径备份-2" class="shp1" d="M359.79 78L373.47 78L373.47 27.75L359.79 27.75L359.79 78Z" />
					<path id="路径" class="shp2" d="M366.99 18C372.06 18 376.02 14.01 376.02 9.03C376.02 3.99 372.06 0 366.99 0C361.98 0 358.02 3.99 358.02 9.03C358.02 14.01 361.98 18 366.99 18Z" />
				</g>
			</g>
		</g>
	</g>
</svg>